<svg width="18" height="18" viewBox="0 0 18 18" fill="none" xmlns="http://www.w3.org/2000/svg">
<g clip-path="url(#clip0_132_1827)">
<mask id="mask0_132_1827" style="mask-type:luminance" maskUnits="userSpaceOnUse" x="0" y="0" width="18" height="18">
<path d="M18 0H0V18H18V0Z" fill="white"/>
</mask>
<g mask="url(#mask0_132_1827)">
<path d="M9 17.0625C4.5525 17.0625 0.9375 13.4475 0.9375 9C0.9375 4.5525 4.5525 0.9375 9 0.9375C13.4475 0.9375 17.0625 4.5525 17.0625 9C17.0625 9.3075 16.8075 9.5625 16.5 9.5625C16.1925 9.5625 15.9375 9.3075 15.9375 9C15.9375 5.175 12.825 2.0625 9 2.0625C5.175 2.0625 2.0625 5.175 2.0625 9C2.0625 12.825 5.175 15.9375 9 15.9375C9.3075 15.9375 9.5625 16.1925 9.5625 16.5C9.5625 16.8075 9.3075 17.0625 9 17.0625Z" fill="#E92B2E"/>
<path d="M6.75017 16.3125H6.00017C5.69267 16.3125 5.43767 16.0575 5.43767 15.75C5.43767 15.4425 5.67768 15.195 5.98518 15.1875C4.80768 11.1675 4.80768 6.8325 5.98518 2.8125C5.68518 2.805 5.43767 2.5575 5.43767 2.25C5.43767 1.9425 5.69267 1.6875 6.00017 1.6875H6.75017C6.93017 1.6875 7.10266 1.7775 7.20766 1.92C7.31266 2.07 7.34266 2.25749 7.28266 2.42999C5.87266 6.66749 5.87266 11.34 7.28266 15.5775C7.34266 15.75 7.31266 15.9375 7.20766 16.0875C7.10266 16.2375 6.93017 16.3125 6.75017 16.3125Z" fill="#E92B2E"/>
<path d="M12.3448 9.56287C12.0373 9.56287 11.7823 9.30787 11.7823 9.00037C11.7823 6.76534 11.4223 4.55283 10.7173 2.43033C10.6198 2.13783 10.7773 1.81532 11.0698 1.71782C11.3623 1.62032 11.6848 1.77785 11.7823 2.07035C12.5248 4.30535 12.9073 6.63784 12.9073 9.00037C12.9073 9.30787 12.6523 9.56287 12.3448 9.56287Z" fill="#E92B2E"/>
<path d="M9 12.9081C6.9 12.9081 4.8225 12.6081 2.8125 12.0156C2.805 12.3156 2.5575 12.5631 2.25 12.5631C1.9425 12.5631 1.6875 12.3081 1.6875 12.0006V11.2506C1.6875 11.0706 1.7775 10.8981 1.92 10.7931C2.0625 10.6881 2.25749 10.6581 2.42999 10.7181C4.55249 11.4231 6.765 11.7831 9 11.7831C9.3075 11.7831 9.5625 12.0381 9.5625 12.3456C9.5625 12.6531 9.3075 12.9081 9 12.9081Z" fill="#E92B2E"/>
<path d="M15.7503 7.31205C15.6903 7.31205 15.6303 7.30456 15.5703 7.28206C11.3328 5.87206 6.66026 5.87206 2.42276 7.28206C2.13026 7.37956 1.80776 7.22204 1.71026 6.92954C1.61276 6.63704 1.77026 6.31453 2.06276 6.21703C6.53276 4.72453 11.4528 4.72453 15.9153 6.21703C16.2078 6.31453 16.3653 6.63704 16.2678 6.92954C16.2078 7.16204 15.9828 7.31205 15.7503 7.31205Z" fill="#E92B2E"/>
<path d="M13.6949 17.0624C11.8349 17.0624 10.3274 15.5474 10.3274 13.6949C10.3274 11.8424 11.8424 10.3199 13.6949 10.3199C14.0699 10.3199 14.4449 10.3723 14.7974 10.4848C15.0974 10.5748 15.2624 10.8898 15.1724 11.1898C15.0824 11.4898 14.7674 11.6548 14.4674 11.5648C14.2199 11.4898 13.9574 11.4524 13.6949 11.4524C12.4574 11.4524 11.4524 12.4574 11.4524 13.7024C11.4524 14.9474 12.4574 15.9449 13.6949 15.9449C14.9324 15.9449 15.9374 14.9399 15.9374 13.7024C15.9374 13.2524 15.8099 12.8248 15.5624 12.4573C15.3899 12.2023 15.4574 11.8499 15.7199 11.6774C15.9749 11.5049 16.3274 11.5724 16.4999 11.8349C16.8749 12.3899 17.0699 13.0424 17.0699 13.7099C17.0624 15.5474 15.5474 17.0624 13.6949 17.0624Z" fill="#E92B2E"/>
<path d="M15.0302 11.662C14.8727 11.662 14.7152 11.5945 14.6027 11.467L13.6652 10.3945C13.4627 10.162 13.4852 9.80198 13.7177 9.59948C13.9502 9.39698 14.3027 9.41955 14.5127 9.65205L15.4502 10.7245C15.6527 10.957 15.6302 11.317 15.3977 11.5195C15.2927 11.617 15.1652 11.662 15.0302 11.662Z" fill="#E92B2E"/>
<path d="M13.9349 12.4573C13.7624 12.4573 13.5899 12.3748 13.4774 12.2248C13.2974 11.9773 13.3499 11.6248 13.5974 11.4373L14.6924 10.6423C14.9399 10.4548 15.2924 10.5148 15.4799 10.7623C15.6599 11.0098 15.6074 11.3623 15.3599 11.5498L14.2649 12.3448C14.1674 12.4198 14.0549 12.4573 13.9349 12.4573Z" fill="#E92B2E"/>
</g>
</g>
<defs>
<clipPath id="clip0_132_1827">
<rect width="18" height="18" fill="white"/>
</clipPath>
</defs>
</svg>
